<svg xmlns="http://www.w3.org/2000/svg" xmlns:xlink="http://www.w3.org/1999/xlink" width="900" zoomAndPan="magnify" viewBox="0 0 675 675.000002" height="900" preserveAspectRatio="xMidYMid meet" version="1.0"><defs><clipPath id="66e658428c"><path d="M 150 149 L 525 149 L 525 525 L 150 525 Z M 150 149 " clip-rule="nonzero"/></clipPath><clipPath id="dc788cd955"><path d="M 104.277344 243.785156 L 430.714844 103.777344 L 570.722656 430.210938 L 244.289062 570.222656 Z M 104.277344 243.785156 " clip-rule="nonzero"/></clipPath><clipPath id="7c51e25f5d"><path d="M 359.671875 154.414062 L 447.285156 189.429688 C 462.867188 195.65625 475.339844 207.820312 481.953125 223.246094 L 519.484375 310.742188 C 526.097656 326.164062 526.316406 343.585938 520.085938 359.167969 L 485.070312 446.78125 C 478.84375 462.363281 466.679688 474.835938 451.253906 481.453125 L 363.757812 518.980469 C 348.335938 525.59375 330.914062 525.8125 315.332031 519.585938 L 227.71875 484.570312 C 212.136719 478.339844 199.664062 466.175781 193.046875 450.753906 L 155.519531 363.253906 C 148.90625 347.832031 148.6875 330.410156 154.914062 314.828125 L 189.929688 227.214844 C 196.160156 211.632812 208.324219 199.160156 223.746094 192.546875 L 311.246094 155.015625 C 326.667969 148.402344 344.089844 148.183594 359.671875 154.414062 Z M 359.671875 154.414062 " clip-rule="nonzero"/></clipPath><clipPath id="882c10b67b"><path d="M 0 0 L 375 0 L 375 376 L 0 376 Z M 0 0 " clip-rule="nonzero"/></clipPath><clipPath id="2065d69cc7"><path d="M -45.722656 94.785156 L 280.714844 -45.222656 L 420.722656 281.210938 L 94.289062 421.222656 Z M -45.722656 94.785156 " clip-rule="nonzero"/></clipPath><clipPath id="98fc68d0ce"><path d="M 209.671875 5.414062 L 297.285156 40.429688 C 312.867188 46.65625 325.339844 58.820312 331.953125 74.246094 L 369.484375 161.742188 C 376.097656 177.164062 376.316406 194.585938 370.085938 210.167969 L 335.070312 297.78125 C 328.84375 313.363281 316.679688 325.835938 301.253906 332.453125 L 213.757812 369.980469 C 198.335938 376.59375 180.914062 376.8125 165.332031 370.585938 L 77.71875 335.570312 C 62.136719 329.339844 49.664062 317.175781 43.046875 301.753906 L 5.519531 214.253906 C -1.09375 198.832031 -1.3125 181.410156 4.914062 165.828125 L 39.929688 78.214844 C 46.160156 62.632812 58.324219 50.160156 73.746094 43.546875 L 161.246094 6.015625 C 176.667969 -0.597656 194.089844 -0.816406 209.671875 5.414062 Z M 209.671875 5.414062 " clip-rule="nonzero"/></clipPath><clipPath id="25046795a3"><rect x="0" width="375" y="0" height="376"/></clipPath><clipPath id="b3b8845ac4"><path d="M 248.644531 250.03125 L 426.128906 250.03125 L 426.128906 423.773438 L 248.644531 423.773438 Z M 248.644531 250.03125 " clip-rule="nonzero"/></clipPath></defs><g clip-path="url(#66e658428c)"><g clip-path="url(#dc788cd955)"><g clip-path="url(#7c51e25f5d)"><g transform="matrix(1, 0, 0, 1, 150, 149)"><g clip-path="url(#25046795a3)"><g clip-path="url(#882c10b67b)"><g clip-path="url(#2065d69cc7)"><g clip-path="url(#98fc68d0ce)"><path fill="#232931" d="M -45.722656 94.785156 L 280.714844 -45.222656 L 420.722656 281.210938 L 94.289062 421.222656 Z M -45.722656 94.785156 " fill-opacity="1" fill-rule="nonzero"/></g></g></g></g></g></g></g></g><g clip-path="url(#b3b8845ac4)"><path fill="#72d3b4" d="M 360.015625 316.300781 L 314.878906 316.300781 L 314.878906 361.4375 L 360.015625 361.4375 Z M 358.867188 360.289062 L 316.027344 360.289062 L 316.027344 317.449219 L 358.867188 317.449219 Z M 422.628906 334.964844 C 422.195312 334.964844 421.777344 335.039062 421.375 335.191406 C 420.972656 335.339844 420.605469 335.554688 420.277344 335.832031 C 419.949219 336.113281 419.679688 336.4375 419.46875 336.8125 C 419.257812 337.191406 419.117188 337.589844 419.046875 338.015625 L 368.914062 338.015625 L 368.914062 335.449219 L 364.984375 335.449219 L 364.984375 332.308594 L 368.914062 332.308594 L 368.914062 329.210938 L 396.039062 329.210938 C 396.085938 329.507812 396.167969 329.796875 396.289062 330.074219 C 396.410156 330.351562 396.5625 330.609375 396.746094 330.847656 C 396.929688 331.085938 397.140625 331.300781 397.378906 331.484375 C 397.613281 331.671875 397.871094 331.828125 398.148438 331.949219 C 398.421875 332.070312 398.710938 332.160156 399.007812 332.207031 C 399.304688 332.257812 399.605469 332.273438 399.90625 332.25 C 400.207031 332.226562 400.5 332.164062 400.785156 332.066406 C 401.070312 331.96875 401.339844 331.839844 401.59375 331.675781 C 401.847656 331.507812 402.074219 331.316406 402.28125 331.09375 C 402.484375 330.871094 402.660156 330.628906 402.804688 330.363281 C 402.949219 330.097656 403.054688 329.820312 403.128906 329.527344 C 403.203125 329.234375 403.242188 328.9375 403.242188 328.636719 C 403.242188 328.332031 403.203125 328.035156 403.128906 327.742188 C 403.054688 327.453125 402.949219 327.171875 402.804688 326.90625 C 402.660156 326.640625 402.484375 326.398438 402.28125 326.175781 C 402.074219 325.953125 401.847656 325.761719 401.59375 325.597656 C 401.339844 325.433594 401.070312 325.300781 400.785156 325.203125 C 400.5 325.105469 400.207031 325.046875 399.90625 325.023438 C 399.605469 324.996094 399.304688 325.011719 399.007812 325.0625 C 398.710938 325.113281 398.421875 325.199219 398.148438 325.320312 C 397.871094 325.445312 397.613281 325.597656 397.378906 325.785156 C 397.140625 325.972656 396.929688 326.183594 396.746094 326.421875 C 396.5625 326.664062 396.410156 326.921875 396.289062 327.199219 C 396.167969 327.476562 396.085938 327.761719 396.039062 328.0625 L 368.914062 328.0625 L 368.914062 325.472656 L 364.984375 325.472656 L 364.984375 322.328125 L 368.914062 322.328125 L 368.914062 319.507812 L 391.34375 319.507812 L 391.34375 306.730469 C 391.640625 306.679688 391.925781 306.597656 392.203125 306.476562 C 392.480469 306.359375 392.738281 306.207031 392.980469 306.023438 C 393.21875 305.835938 393.429688 305.625 393.617188 305.390625 C 393.804688 305.152344 393.957031 304.894531 394.082031 304.621094 C 394.203125 304.34375 394.289062 304.054688 394.339844 303.757812 C 394.390625 303.460938 394.40625 303.160156 394.382812 302.859375 C 394.355469 302.558594 394.296875 302.265625 394.199219 301.980469 C 394.101562 301.695312 393.96875 301.425781 393.804688 301.171875 C 393.640625 300.917969 393.449219 300.691406 393.226562 300.484375 C 393.003906 300.28125 392.761719 300.105469 392.496094 299.960938 C 392.230469 299.820312 391.953125 299.710938 391.660156 299.636719 C 391.367188 299.5625 391.070312 299.523438 390.765625 299.523438 C 390.464844 299.523438 390.167969 299.5625 389.875 299.636719 C 389.582031 299.710938 389.304688 299.820312 389.039062 299.960938 C 388.773438 300.105469 388.527344 300.28125 388.308594 300.484375 C 388.085938 300.691406 387.890625 300.917969 387.726562 301.171875 C 387.5625 301.425781 387.433594 301.695312 387.335938 301.980469 C 387.238281 302.265625 387.175781 302.558594 387.152344 302.859375 C 387.128906 303.160156 387.140625 303.460938 387.191406 303.757812 C 387.242188 304.054688 387.332031 304.34375 387.453125 304.621094 C 387.574219 304.894531 387.730469 305.152344 387.914062 305.390625 C 388.101562 305.625 388.316406 305.835938 388.554688 306.023438 C 388.792969 306.207031 389.050781 306.359375 389.328125 306.476562 C 389.605469 306.597656 389.894531 306.679688 390.191406 306.730469 L 390.191406 318.355469 L 368.914062 318.355469 L 368.914062 315.488281 L 364.984375 315.488281 L 364.984375 311.328125 L 360.828125 311.328125 L 360.828125 307.402344 L 357.960938 307.402344 L 357.960938 286.125 L 369.585938 286.125 C 369.632812 286.421875 369.71875 286.710938 369.835938 286.988281 C 369.957031 287.261719 370.109375 287.523438 370.292969 287.761719 C 370.476562 288 370.6875 288.214844 370.925781 288.398438 C 371.164062 288.585938 371.421875 288.742188 371.695312 288.863281 C 371.972656 288.984375 372.257812 289.070312 372.554688 289.121094 C 372.855469 289.171875 373.152344 289.1875 373.453125 289.164062 C 373.753906 289.136719 374.046875 289.078125 374.335938 288.980469 C 374.621094 288.882812 374.890625 288.753906 375.144531 288.585938 C 375.394531 288.421875 375.625 288.230469 375.828125 288.007812 C 376.035156 287.785156 376.207031 287.542969 376.351562 287.277344 C 376.496094 287.011719 376.605469 286.734375 376.679688 286.441406 C 376.753906 286.148438 376.792969 285.851562 376.792969 285.546875 C 376.792969 285.246094 376.753906 284.949219 376.679688 284.65625 C 376.605469 284.363281 376.496094 284.085938 376.351562 283.820312 C 376.207031 283.554688 376.035156 283.3125 375.828125 283.089844 C 375.625 282.867188 375.394531 282.675781 375.144531 282.507812 C 374.890625 282.34375 374.621094 282.214844 374.335938 282.117188 C 374.046875 282.019531 373.753906 281.957031 373.453125 281.933594 C 373.152344 281.910156 372.855469 281.921875 372.554688 281.972656 C 372.257812 282.023438 371.972656 282.113281 371.695312 282.234375 C 371.421875 282.355469 371.164062 282.511719 370.925781 282.699219 C 370.6875 282.882812 370.476562 283.097656 370.292969 283.335938 C 370.109375 283.574219 369.957031 283.832031 369.835938 284.109375 C 369.71875 284.386719 369.632812 284.675781 369.585938 284.972656 L 356.808594 284.972656 L 356.808594 307.402344 L 353.988281 307.402344 L 353.988281 311.328125 L 350.847656 311.328125 L 350.847656 307.402344 L 348.257812 307.402344 L 348.257812 280.28125 C 348.554688 280.234375 348.84375 280.148438 349.121094 280.027344 C 349.394531 279.910156 349.65625 279.757812 349.894531 279.574219 C 350.132812 279.390625 350.34375 279.179688 350.53125 278.941406 C 350.71875 278.703125 350.871094 278.445312 350.996094 278.171875 C 351.117188 277.894531 351.203125 277.609375 351.253906 277.3125 C 351.304688 277.011719 351.320312 276.714844 351.296875 276.414062 C 351.269531 276.113281 351.210938 275.820312 351.113281 275.53125 C 351.015625 275.246094 350.886719 274.976562 350.71875 274.726562 C 350.554688 274.472656 350.363281 274.242188 350.140625 274.039062 C 349.917969 273.832031 349.675781 273.660156 349.410156 273.515625 C 349.144531 273.371094 348.867188 273.261719 348.574219 273.1875 C 348.28125 273.113281 347.984375 273.078125 347.683594 273.078125 C 347.378906 273.078125 347.082031 273.113281 346.789062 273.1875 C 346.496094 273.261719 346.21875 273.371094 345.953125 273.515625 C 345.6875 273.660156 345.445312 273.832031 345.222656 274.039062 C 345 274.242188 344.808594 274.472656 344.644531 274.726562 C 344.476562 274.976562 344.347656 275.246094 344.25 275.53125 C 344.152344 275.820312 344.09375 276.113281 344.066406 276.414062 C 344.042969 276.714844 344.058594 277.011719 344.109375 277.3125 C 344.160156 277.609375 344.246094 277.894531 344.367188 278.171875 C 344.492188 278.445312 344.644531 278.703125 344.832031 278.941406 C 345.019531 279.179688 345.230469 279.390625 345.46875 279.574219 C 345.707031 279.757812 345.96875 279.910156 346.242188 280.027344 C 346.519531 280.148438 346.808594 280.234375 347.105469 280.28125 L 347.105469 307.40625 L 344.007812 307.40625 L 344.007812 311.332031 L 340.867188 311.332031 L 340.867188 307.40625 L 338.300781 307.40625 L 338.300781 257.269531 C 338.601562 257.21875 338.886719 257.136719 339.164062 257.015625 C 339.441406 256.894531 339.699219 256.746094 339.9375 256.558594 C 340.179688 256.375 340.390625 256.164062 340.578125 255.929688 C 340.765625 255.691406 340.917969 255.433594 341.039062 255.15625 C 341.164062 254.882812 341.25 254.59375 341.300781 254.296875 C 341.351562 254 341.363281 253.699219 341.339844 253.398438 C 341.316406 253.097656 341.253906 252.804688 341.160156 252.519531 C 341.0625 252.234375 340.929688 251.964844 340.765625 251.710938 C 340.601562 251.457031 340.40625 251.230469 340.1875 251.023438 C 339.964844 250.820312 339.722656 250.644531 339.457031 250.503906 C 339.191406 250.359375 338.910156 250.25 338.617188 250.175781 C 338.324219 250.101562 338.027344 250.0625 337.726562 250.0625 C 337.425781 250.0625 337.128906 250.101562 336.835938 250.175781 C 336.542969 250.25 336.265625 250.359375 336 250.503906 C 335.734375 250.644531 335.488281 250.820312 335.269531 251.023438 C 335.046875 251.230469 334.851562 251.457031 334.6875 251.710938 C 334.523438 251.964844 334.394531 252.234375 334.296875 252.519531 C 334.199219 252.804688 334.136719 253.097656 334.113281 253.398438 C 334.089844 253.699219 334.101562 254 334.152344 254.296875 C 334.203125 254.59375 334.289062 254.882812 334.414062 255.15625 C 334.535156 255.433594 334.691406 255.691406 334.875 255.929688 C 335.0625 256.164062 335.277344 256.375 335.515625 256.558594 C 335.753906 256.746094 336.011719 256.894531 336.289062 257.015625 C 336.566406 257.136719 336.855469 257.21875 337.152344 257.269531 L 337.152344 307.402344 L 334.027344 307.402344 L 334.027344 311.328125 L 330.886719 311.328125 L 330.886719 307.402344 L 328.15625 307.402344 L 328.15625 280.28125 C 328.457031 280.234375 328.742188 280.148438 329.019531 280.027344 C 329.296875 279.910156 329.554688 279.757812 329.792969 279.574219 C 330.035156 279.390625 330.246094 279.179688 330.433594 278.941406 C 330.621094 278.703125 330.773438 278.445312 330.894531 278.171875 C 331.019531 277.894531 331.105469 277.609375 331.15625 277.308594 C 331.207031 277.011719 331.21875 276.714844 331.195312 276.414062 C 331.171875 276.113281 331.113281 275.820312 331.015625 275.53125 C 330.917969 275.246094 330.785156 274.976562 330.621094 274.726562 C 330.457031 274.472656 330.261719 274.242188 330.042969 274.039062 C 329.820312 273.832031 329.578125 273.660156 329.3125 273.515625 C 329.046875 273.371094 328.765625 273.261719 328.472656 273.1875 C 328.183594 273.113281 327.882812 273.078125 327.582031 273.078125 C 327.28125 273.078125 326.984375 273.113281 326.691406 273.1875 C 326.398438 273.261719 326.121094 273.371094 325.855469 273.515625 C 325.589844 273.660156 325.34375 273.832031 325.125 274.039062 C 324.902344 274.242188 324.707031 274.472656 324.542969 274.726562 C 324.378906 274.976562 324.25 275.246094 324.152344 275.53125 C 324.054688 275.820312 323.992188 276.113281 323.96875 276.414062 C 323.945312 276.714844 323.957031 277.011719 324.007812 277.308594 C 324.058594 277.609375 324.144531 277.894531 324.269531 278.171875 C 324.390625 278.445312 324.546875 278.703125 324.730469 278.941406 C 324.917969 279.179688 325.132812 279.390625 325.371094 279.574219 C 325.609375 279.757812 325.867188 279.910156 326.144531 280.027344 C 326.421875 280.148438 326.710938 280.234375 327.007812 280.28125 L 327.007812 307.40625 L 324.046875 307.40625 L 324.046875 311.332031 L 320.90625 311.332031 L 320.90625 307.40625 L 318.089844 307.40625 L 318.089844 284.972656 L 305.308594 284.972656 C 305.261719 284.675781 305.175781 284.386719 305.058594 284.109375 C 304.9375 283.832031 304.785156 283.574219 304.601562 283.335938 C 304.417969 283.097656 304.207031 282.882812 303.96875 282.699219 C 303.730469 282.511719 303.476562 282.355469 303.199219 282.234375 C 302.921875 282.113281 302.636719 282.027344 302.339844 281.976562 C 302.039062 281.925781 301.742188 281.910156 301.441406 281.933594 C 301.140625 281.960938 300.847656 282.019531 300.5625 282.117188 C 300.273438 282.214844 300.003906 282.34375 299.753906 282.511719 C 299.5 282.675781 299.269531 282.867188 299.066406 283.089844 C 298.859375 283.3125 298.6875 283.554688 298.542969 283.820312 C 298.398438 284.085938 298.289062 284.363281 298.214844 284.65625 C 298.140625 284.949219 298.105469 285.246094 298.105469 285.546875 C 298.105469 285.851562 298.140625 286.148438 298.214844 286.441406 C 298.289062 286.734375 298.398438 287.011719 298.542969 287.277344 C 298.6875 287.542969 298.859375 287.785156 299.066406 288.007812 C 299.269531 288.230469 299.5 288.421875 299.753906 288.585938 C 300.003906 288.75 300.273438 288.882812 300.5625 288.980469 C 300.847656 289.078125 301.140625 289.136719 301.441406 289.160156 C 301.742188 289.1875 302.039062 289.171875 302.339844 289.121094 C 302.636719 289.070312 302.921875 288.984375 303.199219 288.863281 C 303.476562 288.738281 303.730469 288.585938 303.96875 288.398438 C 304.207031 288.210938 304.417969 288 304.601562 287.761719 C 304.785156 287.523438 304.9375 287.261719 305.058594 286.988281 C 305.175781 286.710938 305.261719 286.421875 305.308594 286.125 L 316.933594 286.125 L 316.933594 307.402344 L 314.066406 307.402344 L 314.066406 311.328125 L 309.910156 311.328125 L 309.910156 315.488281 L 305.980469 315.488281 L 305.980469 318.355469 L 284.703125 318.355469 L 284.703125 306.730469 C 285 306.679688 285.289062 306.597656 285.566406 306.476562 C 285.84375 306.359375 286.101562 306.207031 286.339844 306.023438 C 286.578125 305.835938 286.792969 305.625 286.976562 305.390625 C 287.164062 305.152344 287.320312 304.894531 287.441406 304.621094 C 287.5625 304.34375 287.648438 304.058594 287.699219 303.757812 C 287.75 303.460938 287.765625 303.164062 287.742188 302.863281 C 287.71875 302.5625 287.65625 302.265625 287.558594 301.980469 C 287.460938 301.695312 287.332031 301.425781 287.167969 301.171875 C 287 300.921875 286.808594 300.691406 286.585938 300.488281 C 286.363281 300.28125 286.121094 300.109375 285.855469 299.964844 C 285.589844 299.820312 285.3125 299.710938 285.019531 299.636719 C 284.726562 299.5625 284.429688 299.523438 284.128906 299.523438 C 283.824219 299.523438 283.527344 299.5625 283.234375 299.636719 C 282.945312 299.710938 282.664062 299.820312 282.398438 299.964844 C 282.132812 300.109375 281.890625 300.28125 281.667969 300.488281 C 281.445312 300.691406 281.253906 300.921875 281.089844 301.171875 C 280.925781 301.425781 280.792969 301.695312 280.695312 301.980469 C 280.597656 302.265625 280.539062 302.5625 280.515625 302.863281 C 280.488281 303.164062 280.503906 303.460938 280.554688 303.757812 C 280.605469 304.058594 280.691406 304.34375 280.8125 304.621094 C 280.9375 304.894531 281.089844 305.152344 281.277344 305.390625 C 281.464844 305.625 281.675781 305.835938 281.914062 306.023438 C 282.15625 306.207031 282.414062 306.359375 282.691406 306.476562 C 282.96875 306.597656 283.253906 306.679688 283.550781 306.730469 L 283.550781 319.503906 L 305.980469 319.503906 L 305.980469 322.328125 L 309.910156 322.328125 L 309.910156 325.46875 L 305.980469 325.46875 L 305.980469 328.058594 L 278.855469 328.058594 C 278.808594 327.757812 278.726562 327.472656 278.605469 327.195312 C 278.484375 326.917969 278.332031 326.660156 278.148438 326.421875 C 277.964844 326.179688 277.753906 325.96875 277.515625 325.78125 C 277.28125 325.59375 277.023438 325.441406 276.746094 325.316406 C 276.472656 325.195312 276.183594 325.109375 275.886719 325.058594 C 275.589844 325.007812 275.289062 324.996094 274.988281 325.019531 C 274.6875 325.042969 274.394531 325.101562 274.109375 325.199219 C 273.824219 325.296875 273.554688 325.429688 273.300781 325.59375 C 273.046875 325.757812 272.820312 325.949219 272.613281 326.171875 C 272.410156 326.394531 272.234375 326.636719 272.089844 326.902344 C 271.945312 327.167969 271.839844 327.449219 271.765625 327.742188 C 271.691406 328.03125 271.652344 328.332031 271.652344 328.632812 C 271.652344 328.933594 271.691406 329.230469 271.765625 329.523438 C 271.839844 329.816406 271.945312 330.09375 272.089844 330.359375 C 272.234375 330.625 272.410156 330.871094 272.613281 331.089844 C 272.820312 331.3125 273.046875 331.507812 273.300781 331.671875 C 273.554688 331.835938 273.824219 331.964844 274.109375 332.0625 C 274.394531 332.160156 274.6875 332.222656 274.988281 332.246094 C 275.289062 332.269531 275.589844 332.257812 275.886719 332.207031 C 276.183594 332.15625 276.472656 332.066406 276.746094 331.945312 C 277.023438 331.824219 277.28125 331.667969 277.515625 331.480469 C 277.753906 331.296875 277.964844 331.082031 278.148438 330.84375 C 278.332031 330.605469 278.484375 330.347656 278.605469 330.070312 C 278.726562 329.792969 278.808594 329.503906 278.855469 329.207031 L 305.980469 329.207031 L 305.980469 332.304688 L 309.910156 332.304688 L 309.910156 335.445312 L 305.980469 335.445312 L 305.980469 338.011719 L 255.847656 338.011719 C 255.800781 337.714844 255.714844 337.425781 255.59375 337.148438 C 255.476562 336.871094 255.324219 336.613281 255.140625 336.375 C 254.957031 336.136719 254.746094 335.921875 254.507812 335.734375 C 254.269531 335.550781 254.011719 335.394531 253.738281 335.273438 C 253.460938 335.148438 253.175781 335.0625 252.875 335.011719 C 252.578125 334.960938 252.28125 334.949219 251.980469 334.972656 C 251.679688 334.996094 251.386719 335.058594 251.097656 335.15625 C 250.8125 335.253906 250.542969 335.382812 250.292969 335.546875 C 250.039062 335.710938 249.808594 335.90625 249.605469 336.128906 C 249.398438 336.347656 249.226562 336.59375 249.082031 336.859375 C 248.9375 337.125 248.828125 337.402344 248.753906 337.695312 C 248.679688 337.988281 248.644531 338.285156 248.644531 338.585938 C 248.644531 338.886719 248.679688 339.183594 248.753906 339.476562 C 248.828125 339.769531 248.9375 340.050781 249.082031 340.316406 C 249.226562 340.582031 249.398438 340.824219 249.605469 341.046875 C 249.808594 341.265625 250.039062 341.460938 250.292969 341.625 C 250.542969 341.789062 250.8125 341.921875 251.097656 342.019531 C 251.386719 342.113281 251.679688 342.175781 251.980469 342.199219 C 252.28125 342.222656 252.578125 342.210938 252.875 342.160156 C 253.175781 342.109375 253.460938 342.023438 253.738281 341.898438 C 254.011719 341.777344 254.269531 341.625 254.507812 341.4375 C 254.746094 341.25 254.957031 341.039062 255.140625 340.796875 C 255.324219 340.558594 255.476562 340.300781 255.59375 340.023438 C 255.714844 339.746094 255.800781 339.460938 255.847656 339.160156 L 305.980469 339.160156 L 305.980469 342.285156 L 309.910156 342.285156 L 309.910156 345.425781 L 305.980469 345.425781 L 305.980469 348.15625 L 278.855469 348.15625 C 278.808594 347.859375 278.726562 347.570312 278.605469 347.292969 C 278.484375 347.015625 278.332031 346.757812 278.148438 346.519531 C 277.964844 346.28125 277.753906 346.066406 277.515625 345.878906 C 277.28125 345.695312 277.023438 345.539062 276.746094 345.417969 C 276.472656 345.292969 276.183594 345.207031 275.886719 345.15625 C 275.589844 345.105469 275.289062 345.09375 274.988281 345.117188 C 274.6875 345.140625 274.394531 345.203125 274.109375 345.300781 C 273.824219 345.398438 273.554688 345.527344 273.300781 345.691406 C 273.046875 345.855469 272.820312 346.050781 272.613281 346.273438 C 272.410156 346.492188 272.234375 346.738281 272.089844 347.003906 C 271.945312 347.265625 271.839844 347.546875 271.765625 347.839844 C 271.691406 348.132812 271.652344 348.429688 271.652344 348.730469 C 271.652344 349.03125 271.691406 349.328125 271.765625 349.621094 C 271.839844 349.914062 271.945312 350.195312 272.089844 350.460938 C 272.234375 350.726562 272.410156 350.96875 272.613281 351.191406 C 272.820312 351.410156 273.046875 351.605469 273.300781 351.769531 C 273.554688 351.933594 273.824219 352.066406 274.109375 352.164062 C 274.394531 352.257812 274.6875 352.320312 274.988281 352.34375 C 275.289062 352.367188 275.589844 352.355469 275.886719 352.304688 C 276.183594 352.253906 276.472656 352.167969 276.746094 352.042969 C 277.023438 351.921875 277.28125 351.769531 277.515625 351.582031 C 277.753906 351.394531 277.964844 351.183594 278.148438 350.941406 C 278.332031 350.703125 278.484375 350.445312 278.605469 350.167969 C 278.726562 349.890625 278.808594 349.605469 278.855469 349.304688 L 305.980469 349.304688 L 305.980469 352.265625 L 309.910156 352.265625 L 309.910156 355.410156 L 305.980469 355.410156 L 305.980469 358.230469 L 283.550781 358.230469 L 283.550781 371.007812 C 283.253906 371.054688 282.96875 371.136719 282.691406 371.257812 C 282.414062 371.378906 282.15625 371.53125 281.914062 371.714844 C 281.675781 371.898438 281.464844 372.109375 281.277344 372.347656 C 281.089844 372.582031 280.9375 372.839844 280.8125 373.117188 C 280.691406 373.390625 280.605469 373.679688 280.554688 373.976562 C 280.503906 374.273438 280.488281 374.574219 280.515625 374.875 C 280.539062 375.175781 280.597656 375.46875 280.695312 375.753906 C 280.792969 376.039062 280.925781 376.308594 281.089844 376.5625 C 281.253906 376.816406 281.445312 377.042969 281.667969 377.25 C 281.890625 377.453125 282.132812 377.628906 282.398438 377.773438 C 282.664062 377.914062 282.945312 378.023438 283.234375 378.097656 C 283.527344 378.171875 283.824219 378.210938 284.128906 378.210938 C 284.429688 378.210938 284.726562 378.171875 285.019531 378.097656 C 285.3125 378.023438 285.589844 377.914062 285.855469 377.773438 C 286.121094 377.628906 286.363281 377.453125 286.585938 377.25 C 286.808594 377.042969 287 376.816406 287.167969 376.5625 C 287.332031 376.308594 287.460938 376.039062 287.558594 375.753906 C 287.65625 375.46875 287.71875 375.175781 287.742188 374.875 C 287.765625 374.574219 287.75 374.273438 287.699219 373.976562 C 287.648438 373.679688 287.5625 373.390625 287.441406 373.117188 C 287.320312 372.839844 287.164062 372.582031 286.976562 372.347656 C 286.792969 372.109375 286.578125 371.898438 286.339844 371.714844 C 286.101562 371.53125 285.84375 371.378906 285.566406 371.257812 C 285.289062 371.136719 285 371.054688 284.703125 371.007812 L 284.703125 359.378906 L 305.980469 359.378906 L 305.980469 362.246094 L 309.910156 362.246094 L 309.910156 366.40625 L 314.066406 366.40625 L 314.066406 370.332031 L 317.304688 370.332031 L 317.304688 378.679688 L 304.828125 385.613281 L 304.828125 398.429688 C 304.53125 398.476562 304.242188 398.5625 303.964844 398.679688 C 303.6875 398.800781 303.429688 398.953125 303.191406 399.136719 C 302.953125 399.320312 302.738281 399.53125 302.554688 399.769531 C 302.367188 400.007812 302.210938 400.261719 302.089844 400.539062 C 301.96875 400.816406 301.882812 401.101562 301.832031 401.398438 C 301.78125 401.695312 301.765625 401.996094 301.789062 402.296875 C 301.816406 402.597656 301.875 402.890625 301.972656 403.175781 C 302.070312 403.464844 302.199219 403.734375 302.367188 403.984375 C 302.53125 404.238281 302.722656 404.46875 302.945312 404.671875 C 303.167969 404.878906 303.410156 405.050781 303.675781 405.195312 C 303.941406 405.339844 304.21875 405.449219 304.511719 405.523438 C 304.804688 405.597656 305.101562 405.632812 305.40625 405.632812 C 305.707031 405.632812 306.003906 405.597656 306.296875 405.523438 C 306.589844 405.449219 306.867188 405.339844 307.132812 405.195312 C 307.398438 405.050781 307.640625 404.878906 307.863281 404.671875 C 308.085938 404.46875 308.277344 404.238281 308.445312 403.984375 C 308.609375 403.734375 308.738281 403.464844 308.835938 403.175781 C 308.933594 402.890625 308.996094 402.597656 309.019531 402.296875 C 309.042969 401.996094 309.03125 401.695312 308.980469 401.398438 C 308.929688 401.101562 308.839844 400.816406 308.71875 400.539062 C 308.597656 400.261719 308.441406 400.007812 308.253906 399.769531 C 308.070312 399.53125 307.855469 399.320312 307.617188 399.136719 C 307.378906 398.953125 307.121094 398.800781 306.84375 398.679688 C 306.566406 398.5625 306.277344 398.476562 305.980469 398.429688 L 305.980469 386.289062 L 317.304688 379.996094 L 317.304688 389.515625 L 325.761719 397.96875 L 325.761719 416.726562 C 325.460938 416.773438 325.175781 416.859375 324.898438 416.976562 C 324.621094 417.097656 324.363281 417.25 324.121094 417.433594 C 323.882812 417.617188 323.671875 417.828125 323.484375 418.066406 C 323.296875 418.304688 323.144531 418.558594 323.019531 418.835938 C 322.898438 419.113281 322.8125 419.398438 322.761719 419.695312 C 322.710938 419.992188 322.699219 420.292969 322.722656 420.59375 C 322.746094 420.894531 322.804688 421.1875 322.902344 421.472656 C 323 421.757812 323.132812 422.027344 323.296875 422.28125 C 323.460938 422.535156 323.652344 422.761719 323.875 422.96875 C 324.097656 423.171875 324.339844 423.347656 324.605469 423.492188 C 324.871094 423.636719 325.152344 423.746094 325.445312 423.820312 C 325.734375 423.894531 326.035156 423.929688 326.335938 423.929688 C 326.636719 423.929688 326.933594 423.894531 327.226562 423.820312 C 327.519531 423.746094 327.796875 423.636719 328.0625 423.492188 C 328.328125 423.347656 328.574219 423.171875 328.792969 422.96875 C 329.015625 422.761719 329.210938 422.535156 329.375 422.28125 C 329.539062 422.027344 329.667969 421.757812 329.765625 421.472656 C 329.863281 421.1875 329.925781 420.894531 329.949219 420.59375 C 329.972656 420.292969 329.960938 419.992188 329.910156 419.695312 C 329.859375 419.398438 329.769531 419.113281 329.648438 418.835938 C 329.527344 418.558594 329.371094 418.304688 329.1875 418.066406 C 329 417.828125 328.785156 417.617188 328.546875 417.433594 C 328.308594 417.25 328.050781 417.097656 327.773438 416.976562 C 327.496094 416.859375 327.207031 416.773438 326.910156 416.726562 L 326.910156 397.492188 L 318.453125 389.035156 L 318.453125 370.328125 L 320.90625 370.328125 L 320.90625 366.402344 L 324.046875 366.402344 L 324.046875 370.328125 L 327.144531 370.328125 L 327.144531 379.019531 C 326.847656 379.066406 326.558594 379.152344 326.285156 379.269531 C 326.007812 379.390625 325.746094 379.542969 325.507812 379.726562 C 325.269531 379.910156 325.058594 380.121094 324.871094 380.359375 C 324.683594 380.597656 324.53125 380.851562 324.40625 381.128906 C 324.285156 381.40625 324.199219 381.691406 324.148438 381.988281 C 324.097656 382.285156 324.082031 382.585938 324.105469 382.886719 C 324.132812 383.1875 324.191406 383.480469 324.289062 383.765625 C 324.386719 384.050781 324.515625 384.320312 324.683594 384.574219 C 324.847656 384.828125 325.039062 385.054688 325.261719 385.261719 C 325.484375 385.464844 325.726562 385.640625 325.992188 385.785156 C 326.257812 385.929688 326.535156 386.039062 326.828125 386.113281 C 327.121094 386.1875 327.417969 386.222656 327.722656 386.222656 C 328.023438 386.222656 328.320312 386.1875 328.613281 386.113281 C 328.90625 386.039062 329.183594 385.929688 329.449219 385.785156 C 329.714844 385.640625 329.957031 385.464844 330.179688 385.261719 C 330.402344 385.054688 330.59375 384.828125 330.757812 384.574219 C 330.925781 384.320312 331.054688 384.050781 331.152344 383.765625 C 331.25 383.480469 331.308594 383.1875 331.335938 382.886719 C 331.359375 382.585938 331.34375 382.285156 331.292969 381.988281 C 331.242188 381.691406 331.15625 381.40625 331.035156 381.128906 C 330.914062 380.851562 330.757812 380.597656 330.570312 380.359375 C 330.382812 380.121094 330.171875 379.910156 329.933594 379.726562 C 329.695312 379.542969 329.433594 379.390625 329.160156 379.269531 C 328.882812 379.152344 328.59375 379.066406 328.296875 379.019531 L 328.296875 370.328125 L 330.886719 370.328125 L 330.886719 366.402344 L 334.027344 366.402344 L 334.027344 370.328125 L 337.445312 370.328125 L 337.445312 416.722656 C 337.148438 416.769531 336.863281 416.851562 336.585938 416.972656 C 336.308594 417.09375 336.050781 417.246094 335.808594 417.429688 C 335.570312 417.613281 335.359375 417.824219 335.171875 418.0625 C 334.984375 418.296875 334.832031 418.554688 334.707031 418.832031 C 334.585938 419.105469 334.5 419.394531 334.449219 419.691406 C 334.398438 419.988281 334.386719 420.289062 334.410156 420.589844 C 334.433594 420.890625 334.492188 421.183594 334.589844 421.46875 C 334.6875 421.753906 334.820312 422.023438 334.984375 422.277344 C 335.148438 422.53125 335.339844 422.757812 335.5625 422.964844 C 335.785156 423.167969 336.027344 423.34375 336.292969 423.488281 C 336.558594 423.628906 336.839844 423.738281 337.128906 423.8125 C 337.421875 423.886719 337.71875 423.925781 338.023438 423.925781 C 338.324219 423.925781 338.621094 423.886719 338.914062 423.8125 C 339.207031 423.738281 339.484375 423.628906 339.75 423.488281 C 340.015625 423.34375 340.261719 423.167969 340.480469 422.964844 C 340.703125 422.757812 340.898438 422.53125 341.0625 422.277344 C 341.226562 422.023438 341.355469 421.753906 341.453125 421.46875 C 341.550781 421.183594 341.613281 420.890625 341.636719 420.589844 C 341.660156 420.289062 341.648438 419.988281 341.597656 419.691406 C 341.546875 419.394531 341.457031 419.105469 341.335938 418.832031 C 341.214844 418.554688 341.058594 418.296875 340.871094 418.0625 C 340.6875 417.824219 340.472656 417.613281 340.234375 417.429688 C 339.996094 417.246094 339.738281 417.09375 339.460938 416.972656 C 339.183594 416.851562 338.894531 416.769531 338.597656 416.722656 L 338.597656 370.332031 L 340.863281 370.332031 L 340.863281 366.40625 L 344.003906 366.40625 L 344.003906 370.332031 L 347.105469 370.332031 L 347.105469 379.023438 C 346.804688 379.070312 346.519531 379.15625 346.242188 379.273438 C 345.964844 379.394531 345.707031 379.546875 345.464844 379.730469 C 345.226562 379.914062 345.015625 380.125 344.828125 380.363281 C 344.640625 380.601562 344.488281 380.859375 344.363281 381.132812 C 344.242188 381.410156 344.15625 381.695312 344.105469 381.992188 C 344.054688 382.292969 344.039062 382.589844 344.066406 382.890625 C 344.089844 383.191406 344.148438 383.484375 344.246094 383.773438 C 344.34375 384.058594 344.476562 384.328125 344.640625 384.582031 C 344.804688 384.832031 344.996094 385.0625 345.21875 385.265625 C 345.441406 385.472656 345.683594 385.644531 345.949219 385.789062 C 346.214844 385.933594 346.496094 386.042969 346.789062 386.117188 C 347.078125 386.191406 347.378906 386.230469 347.679688 386.230469 C 347.980469 386.230469 348.277344 386.191406 348.570312 386.117188 C 348.863281 386.042969 349.140625 385.933594 349.40625 385.789062 C 349.671875 385.644531 349.917969 385.472656 350.136719 385.265625 C 350.359375 385.0625 350.554688 384.832031 350.71875 384.582031 C 350.882812 384.328125 351.015625 384.058594 351.109375 383.773438 C 351.207031 383.484375 351.269531 383.191406 351.292969 382.890625 C 351.316406 382.589844 351.304688 382.292969 351.253906 381.992188 C 351.203125 381.695312 351.117188 381.410156 350.992188 381.132812 C 350.871094 380.859375 350.714844 380.601562 350.53125 380.363281 C 350.34375 380.125 350.128906 379.914062 349.890625 379.730469 C 349.652344 379.546875 349.394531 379.394531 349.117188 379.273438 C 348.839844 379.15625 348.550781 379.070312 348.253906 379.023438 L 348.253906 370.332031 L 350.84375 370.332031 L 350.84375 366.40625 L 353.984375 366.40625 L 353.984375 370.332031 L 356.4375 370.332031 L 356.4375 389.039062 L 347.984375 397.492188 L 347.984375 416.726562 C 347.6875 416.773438 347.398438 416.859375 347.121094 416.976562 C 346.84375 417.097656 346.585938 417.25 346.347656 417.433594 C 346.109375 417.617188 345.894531 417.828125 345.710938 418.066406 C 345.523438 418.304688 345.367188 418.558594 345.246094 418.835938 C 345.125 419.113281 345.039062 419.398438 344.988281 419.695312 C 344.9375 419.992188 344.921875 420.292969 344.945312 420.59375 C 344.972656 420.894531 345.03125 421.1875 345.128906 421.472656 C 345.226562 421.757812 345.355469 422.027344 345.523438 422.28125 C 345.6875 422.535156 345.878906 422.761719 346.101562 422.96875 C 346.324219 423.171875 346.566406 423.347656 346.832031 423.492188 C 347.097656 423.636719 347.375 423.746094 347.667969 423.820312 C 347.960938 423.894531 348.257812 423.929688 348.558594 423.929688 C 348.863281 423.929688 349.160156 423.894531 349.453125 423.820312 C 349.746094 423.746094 350.023438 423.636719 350.289062 423.492188 C 350.554688 423.347656 350.796875 423.171875 351.019531 422.96875 C 351.242188 422.761719 351.433594 422.535156 351.597656 422.28125 C 351.761719 422.027344 351.894531 421.757812 351.992188 421.472656 C 352.089844 421.1875 352.148438 420.894531 352.171875 420.59375 C 352.199219 420.292969 352.183594 419.992188 352.132812 419.695312 C 352.082031 419.398438 351.996094 419.113281 351.875 418.835938 C 351.75 418.558594 351.597656 418.304688 351.410156 418.066406 C 351.222656 417.828125 351.011719 417.617188 350.773438 417.433594 C 350.53125 417.25 350.273438 417.097656 349.996094 416.976562 C 349.722656 416.859375 349.433594 416.773438 349.136719 416.726562 L 349.136719 397.96875 L 357.589844 389.515625 L 357.589844 379.996094 L 368.914062 386.289062 L 368.914062 398.429688 C 368.617188 398.476562 368.332031 398.5625 368.054688 398.679688 C 367.777344 398.800781 367.519531 398.953125 367.277344 399.136719 C 367.039062 399.320312 366.828125 399.53125 366.640625 399.769531 C 366.453125 400.007812 366.300781 400.261719 366.175781 400.539062 C 366.054688 400.816406 365.96875 401.101562 365.917969 401.398438 C 365.867188 401.695312 365.851562 401.996094 365.878906 402.296875 C 365.902344 402.597656 365.960938 402.890625 366.058594 403.175781 C 366.15625 403.460938 366.289062 403.730469 366.453125 403.984375 C 366.617188 404.238281 366.808594 404.46875 367.03125 404.671875 C 367.253906 404.875 367.496094 405.050781 367.761719 405.195312 C 368.027344 405.339844 368.304688 405.449219 368.597656 405.523438 C 368.890625 405.597656 369.1875 405.632812 369.492188 405.632812 C 369.792969 405.632812 370.089844 405.597656 370.382812 405.523438 C 370.675781 405.449219 370.953125 405.339844 371.21875 405.195312 C 371.484375 405.050781 371.726562 404.875 371.949219 404.671875 C 372.171875 404.46875 372.363281 404.238281 372.53125 403.984375 C 372.695312 403.730469 372.824219 403.460938 372.921875 403.175781 C 373.019531 402.890625 373.082031 402.597656 373.105469 402.296875 C 373.128906 401.996094 373.113281 401.695312 373.0625 401.398438 C 373.011719 401.101562 372.925781 400.816406 372.804688 400.539062 C 372.683594 400.261719 372.527344 400.007812 372.339844 399.769531 C 372.15625 399.53125 371.941406 399.320312 371.703125 399.136719 C 371.464844 398.953125 371.207031 398.800781 370.929688 398.679688 C 370.652344 398.5625 370.363281 398.476562 370.066406 398.429688 L 370.066406 385.613281 L 357.589844 378.679688 L 357.589844 370.332031 L 360.828125 370.332031 L 360.828125 366.40625 L 364.984375 366.40625 L 364.984375 362.246094 L 368.914062 362.246094 L 368.914062 359.378906 L 390.191406 359.378906 L 390.191406 371.007812 C 389.894531 371.054688 389.605469 371.140625 389.332031 371.257812 C 389.054688 371.378906 388.796875 371.53125 388.554688 371.714844 C 388.316406 371.898438 388.105469 372.109375 387.917969 372.347656 C 387.730469 372.585938 387.578125 372.839844 387.453125 373.117188 C 387.332031 373.394531 387.246094 373.679688 387.195312 373.976562 C 387.144531 374.273438 387.128906 374.574219 387.15625 374.875 C 387.179688 375.175781 387.238281 375.46875 387.335938 375.753906 C 387.433594 376.039062 387.566406 376.308594 387.730469 376.5625 C 387.894531 376.816406 388.085938 377.046875 388.308594 377.25 C 388.53125 377.453125 388.773438 377.628906 389.039062 377.773438 C 389.304688 377.917969 389.582031 378.027344 389.875 378.101562 C 390.167969 378.175781 390.464844 378.210938 390.769531 378.210938 C 391.070312 378.210938 391.367188 378.175781 391.660156 378.101562 C 391.953125 378.027344 392.230469 377.917969 392.496094 377.773438 C 392.761719 377.628906 393.003906 377.453125 393.226562 377.25 C 393.449219 377.046875 393.640625 376.816406 393.808594 376.5625 C 393.972656 376.308594 394.101562 376.039062 394.199219 375.753906 C 394.296875 375.46875 394.359375 375.175781 394.382812 374.875 C 394.40625 374.574219 394.390625 374.273438 394.339844 373.976562 C 394.289062 373.679688 394.203125 373.394531 394.082031 373.117188 C 393.960938 372.839844 393.804688 372.585938 393.617188 372.347656 C 393.433594 372.109375 393.21875 371.898438 392.980469 371.714844 C 392.742188 371.53125 392.484375 371.378906 392.207031 371.257812 C 391.929688 371.140625 391.640625 371.054688 391.34375 371.007812 L 391.34375 358.230469 L 368.914062 358.230469 L 368.914062 355.410156 L 364.984375 355.410156 L 364.984375 352.265625 L 368.914062 352.265625 L 368.914062 349.304688 L 396.039062 349.304688 C 396.085938 349.605469 396.167969 349.890625 396.289062 350.167969 C 396.410156 350.445312 396.5625 350.703125 396.746094 350.941406 C 396.929688 351.183594 397.140625 351.394531 397.378906 351.582031 C 397.613281 351.769531 397.871094 351.921875 398.148438 352.046875 C 398.421875 352.167969 398.710938 352.253906 399.007812 352.304688 C 399.304688 352.355469 399.605469 352.367188 399.90625 352.34375 C 400.207031 352.320312 400.5 352.261719 400.785156 352.164062 C 401.070312 352.066406 401.339844 351.933594 401.59375 351.769531 C 401.847656 351.605469 402.074219 351.414062 402.28125 351.191406 C 402.484375 350.96875 402.660156 350.726562 402.804688 350.460938 C 402.949219 350.195312 403.054688 349.914062 403.128906 349.621094 C 403.203125 349.332031 403.242188 349.035156 403.242188 348.730469 C 403.242188 348.429688 403.203125 348.132812 403.128906 347.839844 C 403.054688 347.546875 402.949219 347.269531 402.804688 347.003906 C 402.660156 346.738281 402.484375 346.492188 402.28125 346.273438 C 402.074219 346.050781 401.847656 345.855469 401.59375 345.691406 C 401.339844 345.527344 401.070312 345.398438 400.785156 345.300781 C 400.5 345.203125 400.207031 345.140625 399.90625 345.117188 C 399.605469 345.09375 399.304688 345.105469 399.007812 345.15625 C 398.710938 345.207031 398.421875 345.296875 398.148438 345.417969 C 397.871094 345.539062 397.613281 345.695312 397.378906 345.882812 C 397.140625 346.066406 396.929688 346.28125 396.746094 346.519531 C 396.5625 346.757812 396.410156 347.015625 396.289062 347.292969 C 396.167969 347.570312 396.085938 347.859375 396.039062 348.15625 L 368.914062 348.15625 L 368.914062 345.429688 L 364.984375 345.429688 L 364.984375 342.285156 L 368.914062 342.285156 L 368.914062 339.160156 L 419.046875 339.160156 C 419.121094 339.621094 419.277344 340.046875 419.515625 340.445312 C 419.753906 340.84375 420.058594 341.183594 420.425781 341.46875 C 420.792969 341.75 421.203125 341.953125 421.648438 342.078125 C 422.09375 342.203125 422.550781 342.242188 423.011719 342.191406 C 423.472656 342.140625 423.910156 342.007812 424.320312 341.792969 C 424.730469 341.578125 425.085938 341.292969 425.386719 340.9375 C 425.6875 340.585938 425.910156 340.1875 426.0625 339.75 C 426.210938 339.308594 426.269531 338.859375 426.246094 338.394531 C 426.222656 337.929688 426.113281 337.488281 425.917969 337.066406 C 425.722656 336.644531 425.457031 336.277344 425.121094 335.957031 C 424.785156 335.636719 424.402344 335.390625 423.96875 335.21875 C 423.539062 335.046875 423.089844 334.960938 422.625 334.960938 Z M 361.625 363.046875 L 313.269531 363.046875 L 313.269531 314.6875 L 361.625 314.6875 Z M 361.625 363.046875 " fill-opacity="1" fill-rule="nonzero"/></g></svg>