<?xml version="1.0" encoding="utf-8" ?>
<svg baseProfile="full" height="800" version="1.1" width="800" xmlns="http://www.w3.org/2000/svg" xmlns:ev="http://www.w3.org/2001/xml-events" xmlns:xlink="http://www.w3.org/1999/xlink"><defs><radialGradient cx="50%" cy="50%" id="gradBlob" r="75%"><stop offset="0" stop-color="#282828" /><stop offset="1" stop-color="#1a1a1a" /></radialGradient></defs><path d="M 400 90 C 510 95 600 150 635 235 C 670 320 655 430 585 505 C 520 575 430 620 340 610 C 245 600 170 545 145 465 C 120 385 140 285 205 215 C 265 150 345 85 400 90 Z" fill="url(#gradBlob)" stroke="#58CFA9" stroke-width="5" /><path d="M 400 90 C 510 95 600 150 635 235 C 670 320 655 430 585 505 C 520 575 430 620 340 610 C 245 600 170 545 145 465 C 120 385 140 285 205 215 C 265 150 345 85 400 90 Z" fill="none" opacity="0.6" stroke="#4534aa" stroke-width="2" /><text fill="#58CFA9" font-family="Poppins, Montserrat, sans-serif" font-size="200" style="font-weight:700;" text-anchor="middle" x="400" y="420">JJ</text><text fill="#4534aa" font-family="'Fira Code', 'Source Code Pro', monospace" font-size="42" letter-spacing="2" text-anchor="middle" x="400" y="520">&lt;DEVS/&gt;</text><circle cx="400" cy="250" fill="#58CFA9" opacity="0.9" r="8" /><circle cx="450" cy="220" fill="#4534aa" opacity="0.9" r="6" /><circle cx="455" cy="280" fill="#4534aa" opacity="0.9" r="6" /><line stroke="#58CFA9" stroke-width="2" x1="400" x2="445" y1="250" y2="222" /><line stroke="#58CFA9" stroke-width="2" x1="400" x2="448" y1="250" y2="275" /></svg>